<svg xmlns="http://www.w3.org/2000/svg" xmlns:xlink="http://www.w3.org/1999/xlink" version="1.1" width="1080" height="1080" viewBox="0 0 1080 1080" xml:space="preserve">
<desc>Created with Fabric.js 5.2.4</desc>
<defs>
</defs>
<g transform="matrix(1 0 0 1 540 540)" id="09903399-5107-4e63-88e7-7bbde4174ceb"  >
</g>
<g transform="matrix(1 0 0 1 540 540)" id="9eaba15e-0c82-475b-b298-52c7d03bcda5"  >
<rect style="stroke: none; stroke-width: 1; stroke-dasharray: none; stroke-linecap: butt; stroke-dashoffset: 0; stroke-linejoin: miter; stroke-miterlimit: 4; fill: rgb(255,255,255); fill-rule: nonzero; opacity: 1; visibility: hidden;" vector-effect="non-scaling-stroke"  x="-540" y="-540" rx="0" ry="0" width="1080" height="1080" />
</g>
<g transform="matrix(1 0 0 1 540 540)"  >
<rect style="stroke: none; stroke-width: 1; stroke-dasharray: none; stroke-linecap: butt; stroke-dashoffset: 0; stroke-linejoin: miter; stroke-miterlimit: 4; fill: rgb(255,255,255); fill-rule: nonzero; opacity: 1; visibility: hidden;" vector-effect="non-scaling-stroke"  x="-540" y="-540" rx="0" ry="0" width="1080" height="1080" />
</g>
<g transform="matrix(2 0 0 2 552.23 529.3)"  >
<path style="stroke: none; stroke-width: 1; stroke-dasharray: none; stroke-linecap: butt; stroke-dashoffset: 0; stroke-linejoin: miter; stroke-miterlimit: 4; fill: rgb(255,188,94); fill-rule: nonzero; opacity: 1;" vector-effect="non-scaling-stroke"  transform=" translate(-255.5, -255.5)" d="M 471.5 167 C 493.28 167 511 149.28 511 127.5 L 511 63.5 C 511 41.72 493.28 24 471.5 24 L 39.5 24 C 17.72 24 0 41.72 0 63.5 L 0 127.5 C 0 149.28 17.72 167 39.5 167 L 248 167 L 248 184 L 39.5 184 C 17.72 184 0 201.72 0 223.5 L 0 287.5 C 0 309.28 17.72 327 39.5 327 L 248 327 L 248 344 L 39.5 344 C 17.72 344 0 361.72 0 383.5 L 0 447.5 C 0 469.28 17.72 487 39.5 487 L 471.5 487 C 493.28 487 511 469.28 511 447.5 L 511 383.5 C 511 361.72 493.28 344 471.5 344 L 263 344 L 263 327 L 471.5 327 C 493.28 327 511 309.28 511 287.5 L 511 223.5 C 511 201.72 493.28 184 471.5 184 L 263 184 L 263 167 L 471.5 167 z M 496 383.5 L 496 447.5 C 496 461.01 485.009 472 471.5 472 L 39.5 472 C 25.991 472 15 461.01 15 447.5 L 15 383.5 C 15 369.99 25.991 359 39.5 359 L 471.5 359 C 485.009 359 496 369.99 496 383.5 z M 496 223.5 L 496 287.5 C 496 301.01 485.009 312 471.5 312 L 39.5 312 C 25.991 312 15 301.01 15 287.5 L 15 223.5 C 15 209.99 25.991 199 39.5 199 L 471.5 199 C 485.009 199 496 209.99 496 223.5 z M 15 127.5 L 15 63.5 C 15 49.99 25.991 39 39.5 39 L 471.5 39 C 485.009 39 496 49.99 496 63.5 L 496 127.5 C 496 141.01 485.009 152 471.5 152 L 39.5 152 C 25.991 152 15 141.01 15 127.5 z" stroke-linecap="round" />
</g>
<g transform="matrix(2 0 0 2 184.14 209.23)"  >
<path style="stroke: none; stroke-width: 1; stroke-dasharray: none; stroke-linecap: butt; stroke-dashoffset: 0; stroke-linejoin: miter; stroke-miterlimit: 4; fill: rgb(255,188,94); fill-rule: nonzero; opacity: 1;" vector-effect="non-scaling-stroke"  transform=" translate(-71.5, -95.5)" d="M 71.5 64 C 54.131 64 40 78.131 40 95.5 C 40 112.869 54.131 127 71.5 127 C 88.869 127 103 112.869 103 95.5 C 103 78.131 88.869 64 71.5 64 z M 71.5 112 C 62.402 112 55 104.598 55 95.5 C 55 86.402 62.402 79 71.5 79 C 80.598 79 88 86.402 88 95.5 C 88 104.598 80.598 112 71.5 112 z" stroke-linecap="round" />
</g>
<g transform="matrix(2 0 0 2 327.99 209.22)"  >
<path style="stroke: none; stroke-width: 1; stroke-dasharray: none; stroke-linecap: butt; stroke-dashoffset: 0; stroke-linejoin: miter; stroke-miterlimit: 4; fill: rgb(255,188,94); fill-rule: nonzero; opacity: 1;" vector-effect="non-scaling-stroke"  transform=" translate(-143.5, -95.5)" d="M 143.5 72 C 130.542 72 120 82.542 120 95.5 C 120 108.458 130.542 119 143.5 119 C 156.458 119 167 108.458 167 95.5 C 167 82.542 156.458 72 143.5 72 z M 143.5 104 C 138.813 104 135 100.187 135 95.5 C 135 90.813 138.813 87 143.5 87 C 148.187 87 152 90.813 152 95.5 C 152 100.187 148.187 104 143.5 104 z" stroke-linecap="round" />
</g>
<g transform="matrix(2 0 0 2 184.14 528.9)"  >
<path style="stroke: none; stroke-width: 1; stroke-dasharray: none; stroke-linecap: butt; stroke-dashoffset: 0; stroke-linejoin: miter; stroke-miterlimit: 4; fill: rgb(255,188,94); fill-rule: nonzero; opacity: 1;" vector-effect="non-scaling-stroke"  transform=" translate(-71.5, -255.5)" d="M 71.5 224 C 54.131 224 40 238.131 40 255.5 C 40 272.869 54.131 287 71.5 287 C 88.869 287 103 272.869 103 255.5 C 103 238.13099999999997 88.869 224 71.5 224 z M 71.5 272 C 62.402 272 55 264.598 55 255.5 C 55 246.402 62.402 239 71.5 239 C 80.598 239 88 246.402 88 255.5 C 88 264.598 80.598 272 71.5 272 z" stroke-linecap="round" />
</g>
<g transform="matrix(2 0 0 2 327.99 528.89)"  >
<path style="stroke: none; stroke-width: 1; stroke-dasharray: none; stroke-linecap: butt; stroke-dashoffset: 0; stroke-linejoin: miter; stroke-miterlimit: 4; fill: rgb(255,188,94); fill-rule: nonzero; opacity: 1;" vector-effect="non-scaling-stroke"  transform=" translate(-143.5, -255.5)" d="M 143.5 232 C 130.542 232 120 242.542 120 255.5 C 120 268.45799999999997 130.542 279 143.5 279 C 156.458 279 167 268.458 167 255.5 C 167 242.54199999999997 156.458 232 143.5 232 z M 143.5 264 C 138.813 264 135 260.187 135 255.5 C 135 250.813 138.813 247 143.5 247 C 148.187 247 152 250.813 152 255.5 C 152 260.187 148.187 264 143.5 264 z" stroke-linecap="round" />
</g>
<g transform="matrix(2 0 0 2 687.86 560.83)"  >
<path style="stroke: none; stroke-width: 1; stroke-dasharray: none; stroke-linecap: butt; stroke-dashoffset: 0; stroke-linejoin: miter; stroke-miterlimit: 4; fill: rgb(255,188,94); fill-rule: nonzero; opacity: 1;" vector-effect="non-scaling-stroke"  transform=" translate(-323.5, -271.5)" d="M 455.5 264 L 191.5 264 C 187.358 264 184 267.357 184 271.5 C 184 275.643 187.358 279 191.5 279 L 455.5 279 C 459.642 279 463 275.643 463 271.5 C 463 267.357 459.642 264 455.5 264 z" stroke-linecap="round" />
</g>
<g transform="matrix(2 0 0 2 687.86 496.88)"  >
<path style="stroke: none; stroke-width: 1; stroke-dasharray: none; stroke-linecap: butt; stroke-dashoffset: 0; stroke-linejoin: miter; stroke-miterlimit: 4; fill: rgb(255,188,94); fill-rule: nonzero; opacity: 1;" vector-effect="non-scaling-stroke"  transform=" translate(-323.5, -239.5)" d="M 184 239.5 C 184 243.643 187.358 247 191.5 247 L 455.5 247 C 459.642 247 463 243.643 463 239.5 C 463 235.357 459.642 232 455.5 232 L 191.5 232 C 187.358 232 184 235.357 184 239.5 z" stroke-linecap="round" />
</g>
<g transform="matrix(2 0 0 2 687.86 241.14)"  >
<path style="stroke: none; stroke-width: 1; stroke-dasharray: none; stroke-linecap: butt; stroke-dashoffset: 0; stroke-linejoin: miter; stroke-miterlimit: 4; fill: rgb(255,188,94); fill-rule: nonzero; opacity: 1;" vector-effect="non-scaling-stroke"  transform=" translate(-323.5, -111.5)" d="M 463 111.5 C 463 107.357 459.642 104 455.5 104 L 191.5 104 C 187.358 104 184 107.357 184 111.5 C 184 115.643 187.358 119 191.5 119 L 455.5 119 C 459.642 119 463 115.643 463 111.5 z" stroke-linecap="round" />
</g>
<g transform="matrix(2 0 0 2 687.86 177.22)"  >
<path style="stroke: none; stroke-width: 1; stroke-dasharray: none; stroke-linecap: butt; stroke-dashoffset: 0; stroke-linejoin: miter; stroke-miterlimit: 4; fill: rgb(255,188,94); fill-rule: nonzero; opacity: 1;" vector-effect="non-scaling-stroke"  transform=" translate(-323.5, -79.5)" d="M 191.5 87 L 455.5 87 C 459.642 87 463 83.643 463 79.5 C 463 75.357 459.642 72 455.5 72 L 191.5 72 C 187.358 72 184 75.357 184 79.5 C 184 83.643 187.358 87 191.5 87 z" stroke-linecap="round" />
</g>
<g transform="matrix(2 0 0 2 184.14 848.56)"  >
<path style="stroke: none; stroke-width: 1; stroke-dasharray: none; stroke-linecap: butt; stroke-dashoffset: 0; stroke-linejoin: miter; stroke-miterlimit: 4; fill: rgb(255,188,94); fill-rule: nonzero; opacity: 1;" vector-effect="non-scaling-stroke"  transform=" translate(-71.5, -415.5)" d="M 71.5 384 C 54.131 384 40 398.131 40 415.5 C 40 432.869 54.131 447 71.5 447 C 88.869 447 103 432.869 103 415.5 C 103 398.131 88.869 384 71.5 384 z M 71.5 432 C 62.402 432 55 424.598 55 415.5 C 55 406.402 62.402 399 71.5 399 C 80.598 399 88 406.402 88 415.5 C 88 424.598 80.598 432 71.5 432 z" stroke-linecap="round" />
</g>
<g transform="matrix(2 0 0 2 327.99 848.55)"  >
<path style="stroke: none; stroke-width: 1; stroke-dasharray: none; stroke-linecap: butt; stroke-dashoffset: 0; stroke-linejoin: miter; stroke-miterlimit: 4; fill: rgb(255,188,94); fill-rule: nonzero; opacity: 1;" vector-effect="non-scaling-stroke"  transform=" translate(-143.5, -415.5)" d="M 143.5 392 C 130.542 392 120 402.542 120 415.5 C 120 428.458 130.542 439 143.5 439 C 156.458 439 167 428.458 167 415.5 C 167 402.542 156.458 392 143.5 392 z M 143.5 424 C 138.813 424 135 420.187 135 415.5 C 135 410.813 138.813 407 143.5 407 C 148.187 407 152 410.813 152 415.5 C 152 420.187 148.187 424 143.5 424 z" stroke-linecap="round" />
</g>
<g transform="matrix(2 0 0 2 687.86 880.47)"  >
<path style="stroke: none; stroke-width: 1; stroke-dasharray: none; stroke-linecap: butt; stroke-dashoffset: 0; stroke-linejoin: miter; stroke-miterlimit: 4; fill: rgb(255,188,94); fill-rule: nonzero; opacity: 1;" vector-effect="non-scaling-stroke"  transform=" translate(-323.5, -431.5)" d="M 455.5 424 L 191.5 424 C 187.358 424 184 427.357 184 431.5 C 184 435.643 187.358 439 191.5 439 L 455.5 439 C 459.642 439 463 435.643 463 431.5 C 463 427.357 459.642 424 455.5 424 z" stroke-linecap="round" />
</g>
<g transform="matrix(2 0 0 2 687.86 816.55)"  >
<path style="stroke: none; stroke-width: 1; stroke-dasharray: none; stroke-linecap: butt; stroke-dashoffset: 0; stroke-linejoin: miter; stroke-miterlimit: 4; fill: rgb(255,188,94); fill-rule: nonzero; opacity: 1;" vector-effect="non-scaling-stroke"  transform=" translate(-323.5, -399.5)" d="M 184 399.5 C 184 403.643 187.358 407 191.5 407 L 455.5 407 C 459.642 407 463 403.643 463 399.5 C 463 395.357 459.642 392 455.5 392 L 191.5 392 C 187.358 392 184 395.357 184 399.5 z" stroke-linecap="round" />
</g>
</svg>